<svg width="26" height="26" viewBox="0 0 26 26" fill="none" xmlns="http://www.w3.org/2000/svg">
<g clip-path="url(#clip0_425_295)">
<circle cx="13.5" cy="12.5" r="7.5" fill="#000020"/>
<path fill-rule="evenodd" clip-rule="evenodd" d="M12.9987 2.0111L9.5147 0L7.5829 3.3475H3.5308V7.4776L0 9.516L2.0111 13L0 16.4833L3.5308 18.5224V22.3606H7.41455L9.5147 26L12.9987 23.9889L16.4827 26L18.5835 22.36H22.5888V18.4535L26 16.4833L23.9882 13L26 9.51665L22.5888 7.54715V3.34815H18.4164L16.4827 0L12.9987 2.0111ZM17.8184 9.30735L19.2835 10.7939L11.854 18.2689L7.4113 13.7644L8.8699 12.2967L11.8514 15.2744L17.8184 9.30735Z" fill="yellow"/>
</g>
<defs>
<clipPath id="clip0_425_295">
<rect width="26" height="26" fill="white"/>
</clipPath>
</defs>
</svg>
